<svg id="Layer_1" data-name="Layer 1" xmlns="http://www.w3.org/2000/svg" viewBox="0 0 500 115.31"><defs><style>.cls-1{fill:#ae1f23;}.cls-2{fill:#3c8cc1;}.cls-3{fill:#2f77aa;}.cls-4{fill:#2a6299;}.cls-5{fill:#134e7c;}.cls-6{fill:#1a3b68;}.cls-7{fill:#fff;}</style></defs><title>registered_reports</title><polygon class="cls-1" points="204.81 97.43 197.14 88.57 189.46 79.72 181.79 88.57 174.11 97.43 182.46 97.43 182.46 115.31 196.47 115.31 196.47 97.43 204.81 97.43"/><path class="cls-1" d="M120.46,95.84l-1.65,1.46A2.34,2.34,0,0,0,117,96.08a1.08,1.08,0,0,0-.72.23.68.68,0,0,0-.28.53.91.91,0,0,0,.2.56,15.18,15.18,0,0,0,1.63,1.5q1.28,1.07,1.55,1.35a4.66,4.66,0,0,1,1,1.31,3.27,3.27,0,0,1,.28,1.37,3.13,3.13,0,0,1-1,2.38,3.63,3.63,0,0,1-2.6.94,3.87,3.87,0,0,1-2.18-.61,4.84,4.84,0,0,1-1.59-1.93l1.87-1.13q.84,1.55,1.94,1.55a1.43,1.43,0,0,0,1-.33,1,1,0,0,0,.39-.77,1.33,1.33,0,0,0-.29-.8,8.47,8.47,0,0,0-1.3-1.22,13.09,13.09,0,0,1-2.47-2.41,3.06,3.06,0,0,1-.56-1.69,2.77,2.77,0,0,1,.93-2.09,3.22,3.22,0,0,1,2.29-.87,3.61,3.61,0,0,1,1.67.41A6.08,6.08,0,0,1,120.46,95.84Z" transform="translate(-2.44 -8.2)"/><path class="cls-1" d="M122.82,94.1H125v3.19h1.29v1.87H125V106h-2.17V99.16H121.7V97.29h1.11Z" transform="translate(-2.44 -8.2)"/><path class="cls-1" d="M133.83,97.29H136V106h-2.17V105a4.25,4.25,0,0,1-1.28.87,3.57,3.57,0,0,1-1.39.27,3.85,3.85,0,0,1-2.9-1.3,4.54,4.54,0,0,1-1.22-3.24,4.65,4.65,0,0,1,1.18-3.29,3.77,3.77,0,0,1,2.88-1.28,3.66,3.66,0,0,1,1.46.29,4,4,0,0,1,1.26.88Zm-2.28,1.78a2.2,2.2,0,0,0-1.67.71,2.57,2.57,0,0,0-.67,1.83,2.59,2.59,0,0,0,.68,1.85,2.2,2.2,0,0,0,1.67.72,2.24,2.24,0,0,0,1.7-.71,2.6,2.6,0,0,0,.67-1.87,2.53,2.53,0,0,0-.67-1.83A2.26,2.26,0,0,0,131.55,99.08Z" transform="translate(-2.44 -8.2)"/><path class="cls-1" d="M144.6,97.29h2.16v7.42a4.91,4.91,0,0,1-.88,3.23,4.42,4.42,0,0,1-3.57,1.4,6.27,6.27,0,0,1-2.14-.32,3.73,3.73,0,0,1-2.35-2.44h2.4a2,2,0,0,0,.82.55,3.39,3.39,0,0,0,1.19.19,3.12,3.12,0,0,0,1.41-.27,1.64,1.64,0,0,0,.75-.7,3.56,3.56,0,0,0,.22-1.48,3.6,3.6,0,0,1-1.2.82A3.82,3.82,0,0,1,142,106,3.91,3.91,0,0,1,139,104.7a4.88,4.88,0,0,1,.07-6.49,3.8,3.8,0,0,1,2.75-1.13,3.65,3.65,0,0,1,1.41.28,4.47,4.47,0,0,1,1.33.9Zm-2.25,1.81a2.26,2.26,0,0,0-1.7.69,2.38,2.38,0,0,0-.67,1.73,2.42,2.42,0,0,0,.68,1.78,2.32,2.32,0,0,0,1.72.69,2.22,2.22,0,0,0,1.67-.68,2.44,2.44,0,0,0,.66-1.77,2.41,2.41,0,0,0-.66-1.76A2.28,2.28,0,0,0,142.35,99.1Z" transform="translate(-2.44 -8.2)"/><path class="cls-1" d="M157.64,102.25h-7a2.32,2.32,0,0,0,.81,1.47,2.53,2.53,0,0,0,1.68.54,2.89,2.89,0,0,0,2.09-.85l1.83.86a4.31,4.31,0,0,1-1.64,1.44,5.12,5.12,0,0,1-2.27.47,4.49,4.49,0,0,1-3.32-1.29,4.37,4.37,0,0,1-1.28-3.22,4.52,4.52,0,0,1,1.28-3.29,4.29,4.29,0,0,1,3.2-1.31,4.45,4.45,0,0,1,3.33,1.31,4.73,4.73,0,0,1,1.28,3.46Zm-2.17-1.71a2.18,2.18,0,0,0-.85-1.18,2.46,2.46,0,0,0-1.47-.45,2.6,2.6,0,0,0-1.59.51,2.83,2.83,0,0,0-.8,1.12Z" transform="translate(-2.44 -8.2)"/><path class="cls-1" d="M165.54,94.25h3.33V106h-2.21V96.34h-2.41Z" transform="translate(-2.44 -8.2)"/><path class="cls-1" d="M77.15,111.5h2.36a7.77,7.77,0,0,1,2.77.35A2.81,2.81,0,0,1,83.61,113a3.54,3.54,0,0,1,.49,1.9,3.19,3.19,0,0,1-.64,2,3.32,3.32,0,0,1-1.74,1.13,10,10,0,0,1-2.35.18v5H77.15Zm2.23,4.58h.71a3.82,3.82,0,0,0,1.16-.12,1,1,0,0,0,.51-.4,1.16,1.16,0,0,0,.19-.67,1.07,1.07,0,0,0-.53-1,3,3,0,0,0-1.42-.23h-.63Z" transform="translate(-2.44 -8.2)"/><path class="cls-1" d="M94.72,119.51h-7a2.32,2.32,0,0,0,.81,1.47,2.53,2.53,0,0,0,1.68.54,2.89,2.89,0,0,0,2.09-.85l1.83.86A4.31,4.31,0,0,1,92.51,123a5.12,5.12,0,0,1-2.27.47,4.49,4.49,0,0,1-3.32-1.29,4.37,4.37,0,0,1-1.28-3.22,4.52,4.52,0,0,1,1.28-3.29,4.29,4.29,0,0,1,3.2-1.31,4.45,4.45,0,0,1,3.33,1.31,4.73,4.73,0,0,1,1.28,3.46Zm-2.17-1.71a2.18,2.18,0,0,0-.85-1.18,2.46,2.46,0,0,0-1.47-.45,2.6,2.6,0,0,0-1.59.51,2.83,2.83,0,0,0-.8,1.12Z" transform="translate(-2.44 -8.2)"/><path class="cls-1" d="M105.15,119.51h-7A2.32,2.32,0,0,0,99,121a2.53,2.53,0,0,0,1.68.54,2.89,2.89,0,0,0,2.09-.85l1.83.86a4.31,4.31,0,0,1-1.64,1.44,5.12,5.12,0,0,1-2.27.47,4.49,4.49,0,0,1-3.32-1.29,4.37,4.37,0,0,1-1.28-3.22,4.52,4.52,0,0,1,1.28-3.29,4.29,4.29,0,0,1,3.2-1.31,4.45,4.45,0,0,1,3.33,1.31,4.73,4.73,0,0,1,1.28,3.46ZM103,117.8a2.18,2.18,0,0,0-.85-1.18,2.46,2.46,0,0,0-1.47-.45,2.6,2.6,0,0,0-1.59.51,2.83,2.83,0,0,0-.8,1.12Z" transform="translate(-2.44 -8.2)"/><path class="cls-1" d="M106.4,114.55h1.86v1.09a2.32,2.32,0,0,1,.8-1,1.94,1.94,0,0,1,1.1-.33,2,2,0,0,1,.88.22l-.68,1.87a1.5,1.5,0,0,0-.63-.19,1,1,0,0,0-.85.62,5.69,5.69,0,0,0-.35,2.44v3.92H106.4Z" transform="translate(-2.44 -8.2)"/><path class="cls-1" d="M117.08,111.5h2.36a7.79,7.79,0,0,1,2.76.35,2.83,2.83,0,0,1,1.32,1.15,3.52,3.52,0,0,1,.5,1.9,3.24,3.24,0,0,1-.55,1.93,3.36,3.36,0,0,1-1.67,1.17l2.77,5.21h-2.44l-2.63-5h-.2v5h-2.23Zm2.23,4.58h.7a2.72,2.72,0,0,0,1.46-.28,1,1,0,0,0,.4-.93,1.14,1.14,0,0,0-.2-.67,1.11,1.11,0,0,0-.53-.41,4,4,0,0,0-1.22-.12h-.61Z" transform="translate(-2.44 -8.2)"/><path class="cls-1" d="M134.82,119.51h-7a2.32,2.32,0,0,0,.81,1.47,2.53,2.53,0,0,0,1.68.54,2.89,2.89,0,0,0,2.09-.85l1.83.86a4.31,4.31,0,0,1-1.64,1.44,5.12,5.12,0,0,1-2.27.47,4.49,4.49,0,0,1-3.32-1.29,4.37,4.37,0,0,1-1.28-3.22,4.52,4.52,0,0,1,1.28-3.29,4.29,4.29,0,0,1,3.2-1.31,4.45,4.45,0,0,1,3.33,1.31,4.73,4.73,0,0,1,1.28,3.46Zm-2.17-1.71a2.18,2.18,0,0,0-.85-1.18,2.46,2.46,0,0,0-1.47-.45,2.6,2.6,0,0,0-1.59.51,2.83,2.83,0,0,0-.8,1.12Z" transform="translate(-2.44 -8.2)"/><path class="cls-1" d="M135.65,114.55h2.21l2.19,5.11,2.18-5.11h2.2l-3.69,8.66h-1.41Z" transform="translate(-2.44 -8.2)"/><path class="cls-1" d="M146.55,111a1.33,1.33,0,0,1,1,.41,1.38,1.38,0,0,1,.41,1,1.36,1.36,0,0,1-.4,1,1.31,1.31,0,0,1-1,.41,1.33,1.33,0,0,1-1-.42,1.4,1.4,0,0,1-.41-1,1.38,1.38,0,0,1,1.38-1.39Zm-1.09,3.57h2.17v8.66h-2.17Z" transform="translate(-2.44 -8.2)"/><path class="cls-1" d="M158.29,119.51h-7a2.32,2.32,0,0,0,.81,1.47,2.53,2.53,0,0,0,1.68.54,2.89,2.89,0,0,0,2.09-.85l1.83.86a4.31,4.31,0,0,1-1.64,1.44,5.12,5.12,0,0,1-2.27.47,4.49,4.49,0,0,1-3.32-1.29,4.37,4.37,0,0,1-1.28-3.22,4.52,4.52,0,0,1,1.28-3.29,4.29,4.29,0,0,1,3.2-1.31,4.45,4.45,0,0,1,3.33,1.31,4.73,4.73,0,0,1,1.28,3.46Zm-2.17-1.71a2.18,2.18,0,0,0-.85-1.18,2.46,2.46,0,0,0-1.47-.45,2.6,2.6,0,0,0-1.59.51,2.83,2.83,0,0,0-.8,1.12Z" transform="translate(-2.44 -8.2)"/><path class="cls-1" d="M159.09,114.55h2.13l1.74,4.93,1.87-4.93h1.3l1.84,4.87,1.74-4.87h2.14l-3.16,8.66h-1.38l-1.85-4.93-1.9,4.93h-1.36Z" transform="translate(-2.44 -8.2)"/><polygon class="cls-1" points="401.42 97.29 393.74 88.43 386.07 79.58 378.39 88.43 370.72 97.29 379.07 97.29 379.07 115.17 393.07 115.17 393.07 97.29 401.42 97.29"/><path class="cls-1" d="M316.71,95.7l-1.65,1.46a2.34,2.34,0,0,0-1.77-1.21,1.08,1.08,0,0,0-.72.23.68.68,0,0,0-.28.53.91.91,0,0,0,.2.56,15.21,15.21,0,0,0,1.63,1.5q1.28,1.07,1.55,1.35a4.65,4.65,0,0,1,1,1.31,3.28,3.28,0,0,1,.28,1.37,3.13,3.13,0,0,1-1,2.38,3.63,3.63,0,0,1-2.6.94,3.87,3.87,0,0,1-2.18-.61,4.84,4.84,0,0,1-1.59-1.93l1.87-1.13q.85,1.55,1.95,1.55a1.43,1.43,0,0,0,1-.33,1,1,0,0,0,.39-.77,1.33,1.33,0,0,0-.29-.8,8.48,8.48,0,0,0-1.3-1.22,13.11,13.11,0,0,1-2.47-2.41,3.06,3.06,0,0,1-.56-1.69,2.76,2.76,0,0,1,.93-2.09,3.22,3.22,0,0,1,2.29-.87,3.62,3.62,0,0,1,1.67.41A6.09,6.09,0,0,1,316.71,95.7Z" transform="translate(-2.44 -8.2)"/><path class="cls-1" d="M319.07,94h2.17v3.19h1.29V99h-1.29v6.79h-2.17V99H318V97.15h1.11Z" transform="translate(-2.44 -8.2)"/><path class="cls-1" d="M330.08,97.15h2.17v8.66h-2.17v-.92a4.26,4.26,0,0,1-1.28.87,3.57,3.57,0,0,1-1.39.27,3.85,3.85,0,0,1-2.9-1.3,4.54,4.54,0,0,1-1.22-3.24,4.65,4.65,0,0,1,1.18-3.29,3.77,3.77,0,0,1,2.88-1.28,3.66,3.66,0,0,1,1.46.29,4,4,0,0,1,1.26.88Zm-2.28,1.78a2.2,2.2,0,0,0-1.67.71,2.57,2.57,0,0,0-.67,1.83,2.59,2.59,0,0,0,.68,1.85,2.2,2.2,0,0,0,1.67.72,2.24,2.24,0,0,0,1.7-.71,2.6,2.6,0,0,0,.67-1.87,2.53,2.53,0,0,0-.67-1.83A2.27,2.27,0,0,0,327.8,98.94Z" transform="translate(-2.44 -8.2)"/><path class="cls-1" d="M340.85,97.15H343v7.42a4.91,4.91,0,0,1-.88,3.23,4.42,4.42,0,0,1-3.57,1.4,6.27,6.27,0,0,1-2.14-.32,3.85,3.85,0,0,1-1.46-.94,3.81,3.81,0,0,1-.88-1.5h2.4a2,2,0,0,0,.82.55,3.38,3.38,0,0,0,1.19.19,3.12,3.12,0,0,0,1.41-.27,1.63,1.63,0,0,0,.75-.7,3.54,3.54,0,0,0,.22-1.48,3.6,3.6,0,0,1-1.2.82,3.83,3.83,0,0,1-1.42.25,3.92,3.92,0,0,1-2.95-1.26,4.88,4.88,0,0,1,.07-6.49,3.8,3.8,0,0,1,2.75-1.13,3.65,3.65,0,0,1,1.41.28,4.46,4.46,0,0,1,1.33.9ZM338.6,99a2.26,2.26,0,0,0-1.7.69,2.39,2.39,0,0,0-.67,1.73,2.42,2.42,0,0,0,.68,1.78,2.32,2.32,0,0,0,1.72.69,2.22,2.22,0,0,0,1.67-.68,2.44,2.44,0,0,0,.66-1.77,2.41,2.41,0,0,0-.66-1.76A2.28,2.28,0,0,0,338.6,99Z" transform="translate(-2.44 -8.2)"/><path class="cls-1" d="M353.89,102.11h-7a2.32,2.32,0,0,0,.81,1.47,2.54,2.54,0,0,0,1.68.54,2.89,2.89,0,0,0,2.09-.85l1.83.86a4.32,4.32,0,0,1-1.64,1.44,5.13,5.13,0,0,1-2.27.47,4.49,4.49,0,0,1-3.32-1.29,4.37,4.37,0,0,1-1.28-3.22,4.52,4.52,0,0,1,1.28-3.29,4.29,4.29,0,0,1,3.2-1.31,4.45,4.45,0,0,1,3.33,1.31,4.73,4.73,0,0,1,1.28,3.46Zm-2.17-1.71a2.18,2.18,0,0,0-.85-1.18,2.46,2.46,0,0,0-1.47-.45,2.6,2.6,0,0,0-1.59.51,2.84,2.84,0,0,0-.8,1.12Z" transform="translate(-2.44 -8.2)"/><path class="cls-1" d="M362,97.88h-2.17a4.28,4.28,0,0,1,1.19-3,4.21,4.21,0,0,1,4.71-.64,3.59,3.59,0,0,1,1.79,3,5.1,5.1,0,0,1-.59,2.24,12.2,12.2,0,0,1-2.17,2.84l-1.31,1.38h4.17v2.06h-8.11v-1.07l3.62-3.69a10.59,10.59,0,0,0,1.75-2.14,3.14,3.14,0,0,0,.43-1.46,1.51,1.51,0,0,0-.45-1.12,1.59,1.59,0,0,0-1.16-.44,1.54,1.54,0,0,0-1.19.53A2.21,2.21,0,0,0,362,97.88Z" transform="translate(-2.44 -8.2)"/><path class="cls-1" d="M273.4,111.36h2.36a7.77,7.77,0,0,1,2.77.35,2.81,2.81,0,0,1,1.34,1.15,3.54,3.54,0,0,1,.49,1.9,3.19,3.19,0,0,1-.64,2,3.32,3.32,0,0,1-1.74,1.13,10,10,0,0,1-2.35.18v5H273.4Zm2.23,4.58h.71a3.81,3.81,0,0,0,1.16-.12,1,1,0,0,0,.51-.4,1.16,1.16,0,0,0,.19-.67,1.07,1.07,0,0,0-.53-1,3,3,0,0,0-1.42-.23h-.63Z" transform="translate(-2.44 -8.2)"/><path class="cls-1" d="M291,119.37h-7a2.32,2.32,0,0,0,.81,1.47,2.54,2.54,0,0,0,1.68.54,2.89,2.89,0,0,0,2.09-.85l1.83.86a4.32,4.32,0,0,1-1.64,1.44,5.13,5.13,0,0,1-2.27.47,4.49,4.49,0,0,1-3.32-1.29,4.37,4.37,0,0,1-1.28-3.22,4.52,4.52,0,0,1,1.28-3.29,4.29,4.29,0,0,1,3.2-1.31,4.45,4.45,0,0,1,3.33,1.31A4.73,4.73,0,0,1,291,119Zm-2.17-1.71a2.18,2.18,0,0,0-.85-1.18,2.46,2.46,0,0,0-1.47-.45,2.6,2.6,0,0,0-1.59.51,2.84,2.84,0,0,0-.8,1.12Z" transform="translate(-2.44 -8.2)"/><path class="cls-1" d="M301.41,119.37h-7a2.32,2.32,0,0,0,.81,1.47,2.54,2.54,0,0,0,1.68.54,2.89,2.89,0,0,0,2.09-.85l1.83.86a4.32,4.32,0,0,1-1.64,1.44,5.13,5.13,0,0,1-2.27.47,4.49,4.49,0,0,1-3.32-1.29,4.37,4.37,0,0,1-1.28-3.22,4.52,4.52,0,0,1,1.28-3.29,4.29,4.29,0,0,1,3.2-1.31,4.45,4.45,0,0,1,3.33,1.31,4.73,4.73,0,0,1,1.28,3.46Zm-2.17-1.71a2.18,2.18,0,0,0-.85-1.18,2.46,2.46,0,0,0-1.47-.45,2.6,2.6,0,0,0-1.59.51,2.84,2.84,0,0,0-.8,1.12Z" transform="translate(-2.44 -8.2)"/><path class="cls-1" d="M302.66,114.41h1.86v1.09a2.33,2.33,0,0,1,.8-1,2,2,0,0,1,1.1-.33,2,2,0,0,1,.88.22l-.68,1.87a1.5,1.5,0,0,0-.63-.19,1,1,0,0,0-.85.62,5.69,5.69,0,0,0-.35,2.44v3.92h-2.16Z" transform="translate(-2.44 -8.2)"/><path class="cls-1" d="M313.33,111.36h2.36a7.79,7.79,0,0,1,2.76.35,2.83,2.83,0,0,1,1.32,1.15,3.52,3.52,0,0,1,.5,1.9,3.25,3.25,0,0,1-.55,1.93,3.37,3.37,0,0,1-1.67,1.17l2.77,5.21h-2.44l-2.63-5h-.2v5h-2.23Zm2.23,4.58h.7a2.72,2.72,0,0,0,1.46-.28,1,1,0,0,0,.4-.93,1.13,1.13,0,0,0-.2-.67,1.11,1.11,0,0,0-.53-.41,4,4,0,0,0-1.22-.12h-.61Z" transform="translate(-2.44 -8.2)"/><path class="cls-1" d="M331.07,119.37h-7a2.32,2.32,0,0,0,.81,1.47,2.54,2.54,0,0,0,1.68.54,2.89,2.89,0,0,0,2.09-.85l1.83.86a4.32,4.32,0,0,1-1.64,1.44,5.13,5.13,0,0,1-2.27.47,4.49,4.49,0,0,1-3.32-1.29,4.37,4.37,0,0,1-1.28-3.22,4.52,4.52,0,0,1,1.28-3.29,4.29,4.29,0,0,1,3.2-1.31,4.45,4.45,0,0,1,3.33,1.31,4.73,4.73,0,0,1,1.28,3.46Zm-2.17-1.71a2.18,2.18,0,0,0-.85-1.18,2.46,2.46,0,0,0-1.47-.45,2.6,2.6,0,0,0-1.59.51,2.84,2.84,0,0,0-.8,1.12Z" transform="translate(-2.44 -8.2)"/><path class="cls-1" d="M331.9,114.41h2.21l2.19,5.11,2.18-5.11h2.2L337,123.07h-1.41Z" transform="translate(-2.44 -8.2)"/><path class="cls-1" d="M342.81,110.85a1.33,1.33,0,0,1,1,.41,1.38,1.38,0,0,1,.41,1,1.36,1.36,0,0,1-.41,1,1.31,1.31,0,0,1-1,.41,1.33,1.33,0,0,1-1-.42,1.4,1.4,0,0,1-.41-1,1.38,1.38,0,0,1,1.38-1.39Zm-1.09,3.57h2.17v8.66h-2.17Z" transform="translate(-2.44 -8.2)"/><path class="cls-1" d="M354.54,119.37h-7a2.32,2.32,0,0,0,.81,1.47,2.54,2.54,0,0,0,1.68.54,2.89,2.89,0,0,0,2.09-.85l1.83.86a4.32,4.32,0,0,1-1.64,1.44,5.13,5.13,0,0,1-2.27.47,4.49,4.49,0,0,1-3.32-1.29,4.37,4.37,0,0,1-1.28-3.22,4.52,4.52,0,0,1,1.28-3.29,4.29,4.29,0,0,1,3.2-1.31,4.45,4.45,0,0,1,3.33,1.31,4.73,4.73,0,0,1,1.28,3.46Zm-2.17-1.71a2.18,2.18,0,0,0-.85-1.18A2.46,2.46,0,0,0,350,116a2.6,2.6,0,0,0-1.59.51,2.84,2.84,0,0,0-.8,1.12Z" transform="translate(-2.44 -8.2)"/><path class="cls-1" d="M355.34,114.41h2.13l1.74,4.93,1.87-4.93h1.3l1.84,4.87,1.74-4.87h2.14l-3.16,8.66h-1.38l-1.85-4.93-1.9,4.93h-1.36Z" transform="translate(-2.44 -8.2)"/><polygon class="cls-2" points="0 0 84.58 0.03 108.4 37.03 84.58 74.02 0.17 74.1 21.34 37 0 0"/><polygon class="cls-3" points="95.91 0 182.5 0.03 206.31 37.03 182.5 74.02 96.08 74.1 119.25 37 95.91 0"/><polygon class="cls-4" points="193.8 0 280.38 0.03 304.2 37.03 280.38 74.02 193.97 74.1 217.14 37 193.8 0"/><polygon class="cls-5" points="291.44 0 378.02 0.03 401.84 37.03 378.02 74.02 291.61 74.1 314.78 37 291.44 0"/><polygon class="cls-6" points="389.6 0 476.18 0.03 500 37.03 476.18 74.02 389.77 74.1 412.94 37 389.6 0"/><path class="cls-7" d="M28.64,29a5,5,0,0,1,5.21,5.08,4.93,4.93,0,0,1-5.15,5H24.34V29Zm.06,8.58a3.37,3.37,0,0,0,3.5-3.5,3.45,3.45,0,0,0-3.55-3.58H25.94v7.08Z" transform="translate(-2.44 -8.2)"/><path class="cls-7" d="M42.71,37.59v1.5h-7V29h6.92v1.5H37.3v2.62h4.25v1.45H37.3v3Z" transform="translate(-2.44 -8.2)"/><path class="cls-7" d="M54.43,29,49.74,39.08H48.46L43.77,29h1.8L49,36.44l.13.35.11-.35L52.65,29Z" transform="translate(-2.44 -8.2)"/><path class="cls-7" d="M62.82,37.59v1.5h-7V29h6.92v1.5H57.4v2.62h4.25v1.45H57.4v3Z" transform="translate(-2.44 -8.2)"/><path class="cls-7" d="M71.8,37.59v1.5H65V29h1.6v8.58Z" transform="translate(-2.44 -8.2)"/><path class="cls-7" d="M77.48,28.81A5.24,5.24,0,1,1,72.26,34,5.15,5.15,0,0,1,77.48,28.81Zm0,8.91A3.49,3.49,0,0,0,81.07,34a3.58,3.58,0,1,0-7.15,0A3.47,3.47,0,0,0,77.48,37.72Z" transform="translate(-2.44 -8.2)"/><path class="cls-7" d="M87.92,29c2.37,0,3.81,1.24,3.81,3.29s-1.44,3.3-3.81,3.3H86.17v3.48h-1.6V29Zm0,5.09c1.41,0,2.19-.68,2.19-1.8s-.83-1.8-2.19-1.8H86.17v3.6Z" transform="translate(-2.44 -8.2)"/><path class="cls-7" d="M40.94,56.34V46.27h1.6V56.34Z" transform="translate(-2.44 -8.2)"/><path class="cls-7" d="M49.37,46.27a5,5,0,0,1,5.21,5.08,4.93,4.93,0,0,1-5.15,5H45.06V46.27Zm.06,8.58a3.37,3.37,0,0,0,3.5-3.5,3.45,3.45,0,0,0-3.55-3.58H46.66v7.08Z" transform="translate(-2.44 -8.2)"/><path class="cls-7" d="M63.43,54.85v1.5h-7V46.27h6.92v1.5H58v2.62h4.25v1.45H58v3Z" transform="translate(-2.44 -8.2)"/><path class="cls-7" d="M72.67,54.24H67.29l-1,2.1H64.49l4.95-10.07h1.06l4.95,10.07H73.69Zm-.73-1.5-1.84-3.8L70,48.63l-.11.32L68,52.75Z" transform="translate(-2.44 -8.2)"/><path class="cls-7" d="M135.28,29a5,5,0,0,1,5.21,5.08,4.93,4.93,0,0,1-5.15,5H131V29Zm.06,8.58a3.37,3.37,0,0,0,3.5-3.5,3.45,3.45,0,0,0-3.55-3.58h-2.71v7.08Z" transform="translate(-2.44 -8.2)"/><path class="cls-7" d="M149.35,37.59v1.5h-7V29h6.92v1.5h-5.32v2.62h4.25v1.45h-4.25v3Z" transform="translate(-2.44 -8.2)"/><path class="cls-7" d="M156.44,31.95a2.17,2.17,0,0,0-2.23-1.76c-1.11,0-1.91.49-1.91,1.38s1.24,1.22,2.56,1.65,3.24,1,3.24,3.05c0,1.74-1.51,3-3.76,3a3.86,3.86,0,0,1-4-3l1.55-.42a2.41,2.41,0,0,0,2.52,2c1.24,0,2-.65,2-1.5,0-1.19-1.64-1.55-3.05-2-1.19-.4-2.73-1-2.73-2.71,0-1.57,1.51-2.82,3.6-2.82a3.63,3.63,0,0,1,3.7,2.72Z" transform="translate(-2.44 -8.2)"/><path class="cls-7" d="M159.85,39.08V29h1.6V39.08Z" transform="translate(-2.44 -8.2)"/><path class="cls-7" d="M171.89,37.8a4.36,4.36,0,0,1-3.37,1.48,5.24,5.24,0,0,1,0-10.48,5.2,5.2,0,0,1,4.58,2.65l-1.63.43a3.51,3.51,0,0,0-2.95-1.51A3.46,3.46,0,0,0,165,34a3.72,3.72,0,0,0,7,1.81V35H169V33.72h4.3V39.1h-1.38Z" transform="translate(-2.44 -8.2)"/><path class="cls-7" d="M184,29V39.08h-1.5l-5.27-6.92-.2-.33,0,.39v6.86h-1.6V29H177l5.28,6.86.19.36,0-.42V29Z" transform="translate(-2.44 -8.2)"/><path class="cls-7" d="M140,49.21a2.17,2.17,0,0,0-2.23-1.76c-1.11,0-1.91.49-1.91,1.38s1.24,1.22,2.56,1.65,3.24,1,3.24,3.05c0,1.74-1.51,3-3.76,3a3.86,3.86,0,0,1-4-3l1.55-.42a2.41,2.41,0,0,0,2.52,2c1.24,0,2-.65,2-1.5,0-1.19-1.64-1.55-3.05-2-1.19-.4-2.73-1-2.73-2.71,0-1.57,1.51-2.82,3.6-2.82a3.63,3.63,0,0,1,3.7,2.72Z" transform="translate(-2.44 -8.2)"/><path class="cls-7" d="M150.39,46.27v1.5h-3.27v8.58h-1.6V47.77h-3.24v-1.5Z" transform="translate(-2.44 -8.2)"/><path class="cls-7" d="M160.32,46.27v5.8c0,2.83-1.65,4.48-4.32,4.48s-4.32-1.64-4.32-4.48v-5.8h1.6v5.86c0,1.81,1,2.94,2.72,2.94s2.72-1.12,2.72-2.94V46.27Z" transform="translate(-2.44 -8.2)"/><path class="cls-7" d="M166.77,46.27A5,5,0,0,1,172,51.35a4.93,4.93,0,0,1-5.15,5h-4.36V46.27Zm.06,8.58a3.37,3.37,0,0,0,3.5-3.5,3.45,3.45,0,0,0-3.55-3.58h-2.71v7.08Z" transform="translate(-2.44 -8.2)"/><path class="cls-7" d="M181.29,46.27l-4,5.37v4.71h-1.6V51.64l-4-5.37h1.93l2.72,3.57.17.32.19-.32,2.71-3.57Z" transform="translate(-2.44 -8.2)"/><path class="cls-7" d="M226.13,27.48a2.82,2.82,0,0,0-2.36-1.21,2.77,2.77,0,0,0-2.85,2.93,2.77,2.77,0,0,0,2.85,2.92,2.82,2.82,0,0,0,2.51-1.43l1.28.35a4.19,4.19,0,1,1-3.79-6,4.17,4.17,0,0,1,3.66,2.12Z" transform="translate(-2.44 -8.2)"/><path class="cls-7" d="M232.49,25a4.19,4.19,0,1,1-4.18,4.19A4.12,4.12,0,0,1,232.49,25Zm0,7.12a2.79,2.79,0,0,0,2.86-2.93,2.86,2.86,0,1,0-5.72,0A2.78,2.78,0,0,0,232.49,32.14Z" transform="translate(-2.44 -8.2)"/><path class="cls-7" d="M243.58,32v1.2h-5.42V25.18h1.28V32Z" transform="translate(-2.44 -8.2)"/><path class="cls-7" d="M250.24,32v1.2h-5.42V25.18h1.28V32Z" transform="translate(-2.44 -8.2)"/><path class="cls-7" d="M257.09,32v1.2h-5.6V25.18H257v1.2h-4.26v2.09h3.39v1.16h-3.39V32Z" transform="translate(-2.44 -8.2)"/><path class="cls-7" d="M264.47,27.48a2.82,2.82,0,0,0-2.36-1.21,2.77,2.77,0,0,0-2.85,2.93,2.77,2.77,0,0,0,2.85,2.92,2.82,2.82,0,0,0,2.51-1.43l1.28.35a4.19,4.19,0,1,1-3.79-6,4.17,4.17,0,0,1,3.66,2.12Z" transform="translate(-2.44 -8.2)"/><path class="cls-7" d="M272.88,25.18v1.2h-2.61v6.86H269V26.38H266.4v-1.2Z" transform="translate(-2.44 -8.2)"/><path class="cls-7" d="M285.71,29.6h-1.42v.85c0,1.69-.92,2.95-3.15,2.95-1.77,0-3-1-3-2.49a1.86,1.86,0,0,1,1.68-1.84,1.76,1.76,0,0,1-1.52-1.76c0-1.16.87-2.29,2.77-2.29a2.81,2.81,0,0,1,3,2.29l-1.08.3a1.73,1.73,0,0,0-1.87-1.5,1.29,1.29,0,0,0-1.47,1.24c0,.67.51,1.22,1.58,1.22h4.49Zm-2.63,0h-1.93c-1.06,0-1.73.45-1.73,1.29a1.54,1.54,0,0,0,1.73,1.4c1.37,0,1.93-.64,1.93-1.9Z" transform="translate(-2.44 -8.2)"/><path class="cls-7" d="M231.59,46.9h-4.3l-.82,1.68h-1.42l4-8.05h.85l4,8.05h-1.42ZM231,45.7l-1.47-3-.09-.25-.09.25-1.47,3Z" transform="translate(-2.44 -8.2)"/><path class="cls-7" d="M241.69,40.52v8.05h-1.2L236.29,43l-.16-.26,0,.31v5.49h-1.28V40.52h1.2L240.29,46l.15.29,0-.33V40.52Z" transform="translate(-2.44 -8.2)"/><path class="cls-7" d="M249.14,46.9h-4.3L244,48.58H242.6l4-8.05h.85l4,8.05H250Zm-.59-1.2-1.47-3-.09-.25-.09.25-1.47,3Z" transform="translate(-2.44 -8.2)"/><path class="cls-7" d="M257.77,47.38v1.2h-5.42V40.52h1.28v6.86Z" transform="translate(-2.44 -8.2)"/><path class="cls-7" d="M264.67,40.52l-3.22,4.29v3.76h-1.28V44.81L257,40.52h1.54l2.17,2.85.14.25.15-.25,2.16-2.85Z" transform="translate(-2.44 -8.2)"/><path class="cls-7" d="M271.89,41.71l-4.73,5.49-.23.21.36,0h4.6v1.2h-6.64V47.39l4.77-5.5.23-.2-.36,0h-4.53v-1.2h6.52Z" transform="translate(-2.44 -8.2)"/><path class="cls-7" d="M279.19,47.38v1.2h-5.6V40.52h5.53v1.2h-4.26v2.09h3.39V45h-3.39v2.4Z" transform="translate(-2.44 -8.2)"/><path class="cls-7" d="M241.17,55.86a4,4,0,0,1,4.16,4.06,4,4,0,0,1-4.12,4h-3.49V55.86Zm0,6.86a2.69,2.69,0,0,0,2.8-2.8,2.75,2.75,0,0,0-2.84-2.86H239v5.66Z" transform="translate(-2.44 -8.2)"/><path class="cls-7" d="M251.94,62.24h-4.3l-.82,1.68h-1.42l4-8.05h.85l4,8.05h-1.42Zm-.59-1.2-1.47-3-.09-.25-.09.25-1.47,3Z" transform="translate(-2.44 -8.2)"/><path class="cls-7" d="M260,55.86v1.2h-2.61v6.86h-1.28V57.06h-2.59v-1.2Z" transform="translate(-2.44 -8.2)"/><path class="cls-7" d="M265.87,62.24h-4.3l-.82,1.68h-1.42l4-8.05h.85l4,8.05h-1.42Zm-.59-1.2-1.47-3-.09-.25-.09.25-1.47,3Z" transform="translate(-2.44 -8.2)"/><path class="cls-7" d="M344.33,29l-4,10.07h-1.09L337.36,34l-.12-.43-.13.43-1.86,5.11h-1.09l-4-10.07h1.7l2.76,6.89.1.39.1-.39,2-5.38h.86l2,5.38.1.39.1-.39L342.64,29Z" transform="translate(-2.44 -8.2)"/><path class="cls-7" d="M351.51,39.08l-2.23-3.6h-2v3.6h-1.6V29H349c2.42,0,3.87,1.25,3.87,3.24a3,3,0,0,1-2,2.94l2.43,3.9ZM349.19,34c1.37,0,2-.75,2-1.74s-.71-1.74-2-1.74h-1.88V34Z" transform="translate(-2.44 -8.2)"/><path class="cls-7" d="M355.11,39.08V29h1.6V39.08Z" transform="translate(-2.44 -8.2)"/><path class="cls-7" d="M366.34,29v1.5h-3.27v8.58h-1.6V30.51h-3.24V29Z" transform="translate(-2.44 -8.2)"/><path class="cls-7" d="M374.86,37.59v1.5h-7V29h6.92v1.5h-5.32v2.62h4.25v1.45h-4.25v3Z" transform="translate(-2.44 -8.2)"/><path class="cls-7" d="M331.43,56.34l-2.23-3.6h-2v3.6h-1.6V46.27h3.29c2.42,0,3.87,1.25,3.87,3.24a3,3,0,0,1-2,2.94l2.43,3.9Zm-2.32-5.09c1.37,0,2-.75,2-1.74s-.71-1.74-2-1.74h-1.88v3.48Z" transform="translate(-2.44 -8.2)"/><path class="cls-7" d="M342,54.85v1.5h-7V46.27H342v1.5h-5.32v2.62h4.25v1.45h-4.25v3Z" transform="translate(-2.44 -8.2)"/><path class="cls-7" d="M347.61,46.27c2.37,0,3.81,1.24,3.81,3.29s-1.44,3.3-3.81,3.3h-1.76v3.48h-1.6V46.27Zm0,5.09c1.41,0,2.19-.68,2.19-1.8s-.83-1.8-2.19-1.8h-1.73v3.6Z" transform="translate(-2.44 -8.2)"/><path class="cls-7" d="M357.76,46.07a5.24,5.24,0,1,1-5.22,5.24A5.15,5.15,0,0,1,357.76,46.07Zm0,8.91a3.67,3.67,0,0,0,0-7.34,3.67,3.67,0,0,0,0,7.34Z" transform="translate(-2.44 -8.2)"/><path class="cls-7" d="M370.65,56.34l-2.23-3.6h-2v3.6h-1.6V46.27h3.29c2.42,0,3.87,1.25,3.87,3.24a3,3,0,0,1-2,2.94l2.43,3.9Zm-2.32-5.09c1.37,0,2-.75,2-1.74s-.71-1.74-2-1.74h-1.88v3.48Z" transform="translate(-2.44 -8.2)"/><path class="cls-7" d="M381.22,46.27v1.5H378v8.58h-1.6V47.77h-3.24v-1.5Z" transform="translate(-2.44 -8.2)"/><path class="cls-7" d="M425.55,29c2.37,0,3.81,1.24,3.81,3.29s-1.44,3.3-3.81,3.3H423.8v3.48h-1.6V29Zm0,5.09c1.41,0,2.19-.68,2.19-1.8s-.83-1.8-2.19-1.8H423.8v3.6Z" transform="translate(-2.44 -8.2)"/><path class="cls-7" d="M439.31,29v5.8c0,2.83-1.66,4.48-4.32,4.48s-4.32-1.64-4.32-4.48V29h1.6v5.86c0,1.81,1,2.94,2.72,2.94s2.72-1.12,2.72-2.94V29Z" transform="translate(-2.44 -8.2)"/><path class="cls-7" d="M445.44,29a2.66,2.66,0,0,1,3,2.55,2.19,2.19,0,0,1-1.47,2A2.6,2.6,0,0,1,449,36.08c0,1.74-1.19,3-3.42,3h-4.13V29Zm-.32,4.06c1,0,1.67-.56,1.67-1.37s-.68-1.35-1.67-1.35h-2.07v2.72Zm.33,4.68a1.71,1.71,0,0,0,1.9-1.67,1.78,1.78,0,0,0-1.94-1.68h-2.36v3.35Z" transform="translate(-2.44 -8.2)"/><path class="cls-7" d="M457.61,37.59v1.5h-6.78V29h1.6v8.58Z" transform="translate(-2.44 -8.2)"/><path class="cls-7" d="M459.16,39.08V29h1.6V39.08Z" transform="translate(-2.44 -8.2)"/><path class="cls-7" d="M468.54,31.95a2.17,2.17,0,0,0-2.23-1.76c-1.11,0-1.91.49-1.91,1.38s1.24,1.22,2.56,1.65,3.24,1,3.24,3.05c0,1.74-1.51,3-3.76,3a3.86,3.86,0,0,1-4-3l1.55-.42a2.41,2.41,0,0,0,2.52,2c1.24,0,2-.65,2-1.5,0-1.19-1.64-1.55-3-2-1.19-.4-2.73-1-2.73-2.71,0-1.57,1.51-2.82,3.6-2.82a3.63,3.63,0,0,1,3.7,2.72Z" transform="translate(-2.44 -8.2)"/><path class="cls-7" d="M480.06,29V39.08h-1.6V34.67h-4.92v4.42h-1.6V29h1.6v4.17h4.92V29Z" transform="translate(-2.44 -8.2)"/><path class="cls-7" d="M429.64,56.34l-2.23-3.6h-2v3.6h-1.6V46.27h3.29c2.42,0,3.87,1.25,3.87,3.24a3,3,0,0,1-2,2.94l2.43,3.9Zm-2.32-5.09c1.37,0,2-.75,2-1.74s-.71-1.74-2-1.74h-1.88v3.48Z" transform="translate(-2.44 -8.2)"/><path class="cls-7" d="M440.25,54.85v1.5h-7V46.27h6.92v1.5h-5.32v2.62h4.25v1.45h-4.25v3Z" transform="translate(-2.44 -8.2)"/><path class="cls-7" d="M445.82,46.27c2.37,0,3.81,1.24,3.81,3.29s-1.44,3.3-3.81,3.3h-1.76v3.48h-1.6V46.27Zm0,5.09c1.41,0,2.19-.68,2.19-1.8s-.83-1.8-2.19-1.8h-1.73v3.6Z" transform="translate(-2.44 -8.2)"/><path class="cls-7" d="M456,46.07a5.24,5.24,0,1,1-5.22,5.24A5.15,5.15,0,0,1,456,46.07ZM456,55a3.67,3.67,0,0,0,0-7.34A3.67,3.67,0,0,0,456,55Z" transform="translate(-2.44 -8.2)"/><path class="cls-7" d="M468.86,56.34l-2.23-3.6h-2v3.6h-1.6V46.27h3.29c2.42,0,3.87,1.25,3.87,3.24a3,3,0,0,1-2,2.94l2.43,3.9Zm-2.32-5.09c1.37,0,2-.75,2-1.74s-.71-1.74-2-1.74h-1.88v3.48Z" transform="translate(-2.44 -8.2)"/><path class="cls-7" d="M479.43,46.27v1.5h-3.27v8.58h-1.6V47.77h-3.24v-1.5Z" transform="translate(-2.44 -8.2)"/></svg>