<?xml version="1.0" encoding="UTF-8" standalone="no"?>
<!-- Created with Inkscape (http://www.inkscape.org/) -->

<svg
   xmlns:dc="http://purl.org/dc/elements/1.1/"
   xmlns:cc="http://creativecommons.org/ns#"
   xmlns:rdf="http://www.w3.org/1999/02/22-rdf-syntax-ns#"
   xmlns:svg="http://www.w3.org/2000/svg"
   xmlns="http://www.w3.org/2000/svg"
   xmlns:sodipodi="http://sodipodi.sourceforge.net/DTD/sodipodi-0.dtd"
   xmlns:inkscape="http://www.inkscape.org/namespaces/inkscape"
   width="744.09448819"
   height="1052.3622047"
   id="svg2"
   version="1.1"
   inkscape:version="0.48.2 r9819"
   sodipodi:docname="blank_avatar.svg">
  <defs
     id="defs4">
    <inkscape:perspective
       sodipodi:type="inkscape:persp3d"
       inkscape:vp_x="0 : 526.18109 : 1"
       inkscape:vp_y="0 : 1000 : 0"
       inkscape:vp_z="744.09448 : 526.18109 : 1"
       inkscape:persp3d-origin="372.04724 : 350.78739 : 1"
       id="perspective3822" />
  </defs>
  <sodipodi:namedview
     id="base"
     pagecolor="#ffffff"
     bordercolor="#666666"
     borderopacity="1.0"
     inkscape:pageopacity="0.0"
     inkscape:pageshadow="2"
     inkscape:zoom="15.839192"
     inkscape:cx="418.89776"
     inkscape:cy="428.63139"
     inkscape:document-units="px"
     inkscape:current-layer="layer1"
     showgrid="false"
     inkscape:window-width="1362"
     inkscape:window-height="724"
     inkscape:window-x="4"
     inkscape:window-y="0"
     inkscape:window-maximized="1" />
  <metadata
     id="metadata7">
    <rdf:RDF>
      <cc:Work
         rdf:about="">
        <dc:format>image/svg+xml</dc:format>
        <dc:type
           rdf:resource="http://purl.org/dc/dcmitype/StillImage" />
        <dc:title></dc:title>
      </cc:Work>
    </rdf:RDF>
  </metadata>
  <g
     inkscape:label="Layer 1"
     inkscape:groupmode="layer"
     id="layer1">
    <rect
       style="opacity:1;stroke:none;fill:#3c3c3c;fill-opacity:1"
       id="rect3831"
       width="26.428572"
       height="26.428572"
       x="395.76562"
       y="608.92468"
       inkscape:export-filename="/Users/lyndsy/blank_avatar.png"
       inkscape:export-xdpi="136.21628"
       inkscape:export-ydpi="136.21628" />
    <g
       id="g3857">
      <path
         inkscape:connector-curvature="0"
         id="path3855"
         d="m 408.49554,612.53327 c -2.43124,0.24691 -4.34375,2.31612 -4.34375,4.8125 0,2.6628 2.1497,4.8125 4.8125,4.8125 2.6628,0 4.84375,-2.1497 4.84375,-4.8125 0,-2.6628 -2.18095,-4.8125 -4.84375,-4.8125 -0.16643,0 -0.30667,-0.0165 -0.46875,0 z"
         style="fill:#ffffff;fill-opacity:1;fill-rule:evenodd;stroke:none" />
      <path
         id="path3050"
         d="m 408.94866,622.68952 c -0.52163,-0.0111 -1.02165,0.0323 -1.5,0.0937 -0.0407,0.005 -0.0846,-0.006 -0.125,0 -0.17979,0.0221 -0.3129,0.0322 -0.40625,0.0625 -4.83193,0.89034 -7.28125,5.19879 -7.28125,6.375 0,1.33016 4.23345,2.53125 9.3125,2.53125 0.0292,8e-5 0.0323,0 0.0625,0 5.07905,0 9.3125,-1.20109 9.3125,-2.53125 0,-1.17658 -2.47758,-5.48652 -7.3125,-6.375 -0.13463,-0.0247 -0.26795,-0.0432 -0.40625,-0.0625 -0.0203,-0.003 -0.0724,0.002 -0.0937,0 -0.48173,-0.0624 -0.97432,-0.10496 -1.5,-0.0937 -0.0283,-6.5e-4 -0.0335,6.2e-4 -0.0625,0 z"
         style="fill:#ffffff;fill-opacity:1;fill-rule:evenodd;stroke:none"
         inkscape:connector-curvature="0" />
    </g>
  </g>
</svg>
