<svg width="20" height="20" viewBox="0 0 20 20" fill="none" xmlns="http://www.w3.org/2000/svg">
<path d="M4.5 2C5.16304 2 5.79893 2.26339 6.26777 2.73223C6.73661 3.20107 7 3.83696 7 4.5C7 5.16304 6.73661 5.79893 6.26777 6.26777C5.79893 6.73661 5.16304 7 4.5 7C3.83696 7 3.20107 6.73661 2.73223 6.26777C2.26339 5.79893 2 5.16304 2 4.5C2 3.83696 2.26339 3.20107 2.73223 2.73223C3.20107 2.26339 3.83696 2 4.5 2ZM16 2C16.663 2 17.2989 2.26339 17.7678 2.73223C18.2366 3.20107 18.5 3.83696 18.5 4.5C18.5 5.16304 18.2366 5.79893 17.7678 6.26777C17.2989 6.73661 16.663 7 16 7C15.337 7 14.7011 6.73661 14.2322 6.26777C13.7634 5.79893 13.5 5.16304 13.5 4.5C13.5 3.83696 13.7634 3.20107 14.2322 2.73223C14.7011 2.26339 15.337 2 16 2ZM0 11.3344C0 9.49375 1.49375 8 3.33437 8H4.66875C5.16562 8 5.6375 8.10938 6.0625 8.30312C6.02187 8.52812 6.00313 8.7625 6.00313 9C6.00313 10.1938 6.52812 11.2656 7.35625 12C7.35 12 7.34375 12 7.33437 12H0.665625C0.3 12 0 11.7 0 11.3344ZM12.6656 12C12.6594 12 12.6531 12 12.6438 12C13.475 11.2656 13.9969 10.1938 13.9969 9C13.9969 8.7625 13.975 8.53125 13.9375 8.30312C14.3625 8.10625 14.8344 8 15.3313 8H16.6656C18.5063 8 20 9.49375 20 11.3344C20 11.7031 19.7 12 19.3344 12H12.6687H12.6656ZM7 9C7 8.20435 7.31607 7.44129 7.87868 6.87868C8.44129 6.31607 9.20435 6 10 6C10.7956 6 11.5587 6.31607 12.1213 6.87868C12.6839 7.44129 13 8.20435 13 9C13 9.79565 12.6839 10.5587 12.1213 11.1213C11.5587 11.6839 10.7956 12 10 12C9.20435 12 8.44129 11.6839 7.87868 11.1213C7.31607 10.5587 7 9.79565 7 9ZM4 17.1656C4 14.8656 5.86562 13 8.16562 13H11.8313C14.1344 13 16 14.8656 16 17.1656C16 17.625 15.6281 18 15.1656 18H4.83125C4.37188 18 3.99688 17.6281 3.99688 17.1656H4Z" fill="white"/>
</svg>
