<svg width="20" height="20" viewBox="0 0 20 20" fill="none" xmlns="http://www.w3.org/2000/svg">
<g clip-path="url(#clip0_8_44899)">
<path d="M3.33398 5.625C3.33398 3.4425 5.10982 1.66667 7.29232 1.66667H14.9032C14.629 0.7075 13.7548 0 12.709 0H3.12565C1.86148 0 0.833984 1.0275 0.833984 2.29167V15.2083C0.833984 16.4725 1.86148 17.5 3.12565 17.5H3.33398V5.625Z" fill="white"/>
<path d="M16.875 3.33301H7.29167C6.0275 3.33301 5 4.36051 5 5.62467V17.708C5 18.9722 6.0275 19.9997 7.29167 19.9997H16.875C18.1392 19.9997 19.1667 18.9722 19.1667 17.708V5.62467C19.1667 4.36051 18.1392 3.33301 16.875 3.33301ZM15.2083 17.4997H8.95833C8.61333 17.4997 8.33333 17.2197 8.33333 16.8747C8.33333 16.5297 8.61333 16.2497 8.95833 16.2497H15.2083C15.5533 16.2497 15.8333 16.5297 15.8333 16.8747C15.8333 17.2197 15.5533 17.4997 15.2083 17.4997ZM15.2083 14.1663H8.95833C8.61333 14.1663 8.33333 13.8863 8.33333 13.5413C8.33333 13.1963 8.61333 12.9163 8.95833 12.9163H15.2083C15.5533 12.9163 15.8333 13.1963 15.8333 13.5413C15.8333 13.8863 15.5533 14.1663 15.2083 14.1663ZM15.2083 11.2497H8.95833C8.61333 11.2497 8.33333 10.9697 8.33333 10.6247C8.33333 10.2797 8.61333 9.99967 8.95833 9.99967H15.2083C15.5533 9.99967 15.8333 10.2797 15.8333 10.6247C15.8333 10.9697 15.5533 11.2497 15.2083 11.2497ZM15.2083 7.91634H8.95833C8.61333 7.91634 8.33333 7.63634 8.33333 7.29134C8.33333 6.94634 8.61333 6.66634 8.95833 6.66634H15.2083C15.5533 6.66634 15.8333 6.94634 15.8333 7.29134C15.8333 7.63634 15.5533 7.91634 15.2083 7.91634Z" fill="white"/>
</g>
<defs>
<clipPath id="clip0_8_44899">
<rect width="20" height="20" fill="white"/>
</clipPath>
</defs>
</svg>
