<svg width="20" height="20" viewBox="0 0 20 20" fill="none" xmlns="http://www.w3.org/2000/svg">
<path d="M2.22222 3.71429C1.91667 3.71429 1.66667 3.97143 1.66667 4.28571V15.7143C1.66667 16.0286 1.91667 16.2857 2.22222 16.2857H17.7778C18.0833 16.2857 18.3333 16.0286 18.3333 15.7143V4.28571C18.3333 3.97143 18.0833 3.71429 17.7778 3.71429H2.22222ZM0 4.28571C0 3.025 0.996528 2 2.22222 2H17.7778C19.0035 2 20 3.025 20 4.28571V15.7143C20 16.975 19.0035 18 17.7778 18H2.22222C0.996528 18 0 16.975 0 15.7143V4.28571ZM3.33333 6.57143C3.33333 6.26832 3.4504 5.97763 3.65877 5.76331C3.86714 5.54898 4.14976 5.42857 4.44444 5.42857C4.73913 5.42857 5.02174 5.54898 5.23012 5.76331C5.43849 5.97763 5.55556 6.26832 5.55556 6.57143C5.55556 6.87453 5.43849 7.16522 5.23012 7.37955C5.02174 7.59388 4.73913 7.71429 4.44444 7.71429C4.14976 7.71429 3.86714 7.59388 3.65877 7.37955C3.4504 7.16522 3.33333 6.87453 3.33333 6.57143ZM6.94444 6.57143C6.94444 6.09643 7.31597 5.71429 7.77778 5.71429H15.5556C16.0174 5.71429 16.3889 6.09643 16.3889 6.57143C16.3889 7.04643 16.0174 7.42857 15.5556 7.42857H7.77778C7.31597 7.42857 6.94444 7.04643 6.94444 6.57143ZM6.94444 10C6.94444 9.525 7.31597 9.14286 7.77778 9.14286H15.5556C16.0174 9.14286 16.3889 9.525 16.3889 10C16.3889 10.475 16.0174 10.8571 15.5556 10.8571H7.77778C7.31597 10.8571 6.94444 10.475 6.94444 10ZM6.94444 13.4286C6.94444 12.9536 7.31597 12.5714 7.77778 12.5714H15.5556C16.0174 12.5714 16.3889 12.9536 16.3889 13.4286C16.3889 13.9036 16.0174 14.2857 15.5556 14.2857H7.77778C7.31597 14.2857 6.94444 13.9036 6.94444 13.4286ZM4.44444 11.1429C4.14976 11.1429 3.86714 11.0224 3.65877 10.8081C3.4504 10.5938 3.33333 10.3031 3.33333 10C3.33333 9.6969 3.4504 9.40621 3.65877 9.19188C3.86714 8.97755 4.14976 8.85714 4.44444 8.85714C4.73913 8.85714 5.02174 8.97755 5.23012 9.19188C5.43849 9.40621 5.55556 9.6969 5.55556 10C5.55556 10.3031 5.43849 10.5938 5.23012 10.8081C5.02174 11.0224 4.73913 11.1429 4.44444 11.1429ZM3.33333 13.4286C3.33333 13.1255 3.4504 12.8348 3.65877 12.6205C3.86714 12.4061 4.14976 12.2857 4.44444 12.2857C4.73913 12.2857 5.02174 12.4061 5.23012 12.6205C5.43849 12.8348 5.55556 13.1255 5.55556 13.4286C5.55556 13.7317 5.43849 14.0224 5.23012 14.2367C5.02174 14.451 4.73913 14.5714 4.44444 14.5714C4.14976 14.5714 3.86714 14.451 3.65877 14.2367C3.4504 14.0224 3.33333 13.7317 3.33333 13.4286Z" fill="white"/>
</svg>
