<?xml version="1.0" encoding="UTF-8" standalone="no"?>
<svg
   xmlns:dc="http://purl.org/dc/elements/1.1/"
   xmlns:cc="http://creativecommons.org/ns#"
   xmlns:rdf="http://www.w3.org/1999/02/22-rdf-syntax-ns#"
   xmlns:svg="http://www.w3.org/2000/svg"
   xmlns="http://www.w3.org/2000/svg"
   version="1.1"
   id="svg3250"
   viewBox="0 0 344.00001 140"
   width="344"
   height="140">
  <defs
     id="defs3256" />
  <metadata
     id="metadata3252">
    <rdf:RDF>
      <cc:Work
         rdf:about="">
        <dc:format>image/svg+xml</dc:format>
        <dc:type
           rdf:resource="http://purl.org/dc/dcmitype/StillImage" />
        <dc:title></dc:title>
      </cc:Work>
    </rdf:RDF>
  </metadata>
  <g
     id="text3140"
     style="font-style:normal;font-weight:normal;font-size:112.55921936px;line-height:125%;font-family:sans-serif;letter-spacing:0px;word-spacing:0px;fill:#000000;fill-opacity:1;stroke:none;stroke-width:1px;stroke-linecap:butt;stroke-linejoin:miter;stroke-opacity:1"
     transform="matrix(0.80026202,0,0,1.2717728,-3.094589,1.0591234)">
    <path
       id="path3139"
       style="font-style:normal;font-variant:normal;font-weight:bold;font-stretch:normal;font-size:112.55884552px;line-height:125%;font-family:'URW Bookman L';-inkscape-font-specification:'URW Bookman L, Bold';text-align:start;writing-mode:lr-tb;text-anchor:start;fill:#001e00;fill-opacity:1"
       d="m 58.570569,4.6825931 -17.446621,0 L 18.837296,58.148045 C 14.56006,68.053223 11.971207,70.867194 5.6679115,71.880224 l -1.8009416,0.225118 0,9.229825 34.7806831,0 0,-9.229825 -1.800941,-0.225118 c -6.078178,-0.787912 -8.329355,-1.9135 -8.329355,-4.052119 0,-0.675353 0.450235,-2.813971 1.01303,-4.052118 l 3.601883,-9.680061 24.200152,0 3.376765,9.567502 c 0.787912,2.026059 1.238147,3.93956 1.238147,4.840031 0,2.026059 -2.026059,3.039088 -6.640972,3.376765 l -2.813971,0.225118 0,9.229825 41.083979,0 0,-9.229825 -1.800942,-0.225118 C 85.472133,70.754635 84.459103,69.629047 80.632103,59.61131 L 58.570569,4.6825931 Z M 36.734153,44.528424 45.288625,22.57945 l 8.329355,21.948974 -16.883827,0 z" />
    <path
       id="path3141"
       style="font-style:normal;font-variant:normal;font-weight:bold;font-stretch:normal;font-size:112.55884552px;line-height:125%;font-family:'URW Bookman L';-inkscape-font-specification:'URW Bookman L, Bold';text-align:start;writing-mode:lr-tb;text-anchor:start;fill:#001e00;fill-opacity:1"
       d="m 119.83642,71.542547 c -7.42888,-0.562794 -9.11726,-1.350706 -9.11726,-3.939559 0,-1.350706 1.01303,-2.476295 2.36373,-2.476295 0.33768,0 1.01303,0.112559 1.68838,0.225118 2.58886,0.562794 6.64098,1.013029 9.45495,1.013029 14.63265,0 24.98806,-8.779589 24.98806,-21.273621 0,-6.753531 -2.58885,-11.70612 -8.77959,-16.433592 1.12559,-1.013029 1.80094,-1.350706 3.48932,-1.350706 1.01303,0 1.12559,0 3.48933,0.787912 1.01303,0.337677 2.02606,0.562794 2.70141,0.562794 3.827,0 6.86609,-2.92653 6.86609,-6.415854 0,-4.277236 -3.827,-7.654001 -8.77959,-7.654001 -3.71444,0 -8.21679,1.800941 -11.03077,4.277236 -1.46326,1.350706 -2.47629,2.476294 -4.95259,5.85306 -4.50235,-1.01303 -6.75353,-1.350707 -9.79261,-1.350707 -14.40754,0 -24.988072,9.229826 -24.988072,21.611299 0,6.303295 2.588852,11.593561 7.766562,15.533121 -6.640974,1.575823 -10.805651,6.866089 -10.805651,13.61962 0,3.939559 1.800941,6.978648 5.627941,9.792619 -5.177706,2.363736 -7.654,5.515384 -7.654,10.130296 0,5.965624 4.052118,10.467974 11.36845,12.831704 4.50235,1.46327 11.59356,2.36374 17.89685,2.36374 9.56751,0 18.57221,-1.80094 23.97504,-4.72747 5.51538,-3.03909 9.45494,-9.905179 9.45494,-16.433592 0,-8.77959 -5.96562,-13.957297 -17.44662,-14.970327 l -17.7843,-1.575824 z m 3.48933,-37.819772 c 5.40282,0 7.654,3.601883 7.654,12.381473 0,7.541443 -2.4763,11.030767 -7.654,11.030767 -5.29027,0 -7.65401,-3.489324 -7.65401,-11.255884 0,-8.441914 2.36374,-12.156356 7.65401,-12.156356 z m 5.40282,56.391982 c 6.97865,0.787912 8.89215,1.800941 8.89215,4.502354 0,3.601883 -5.29027,5.402829 -16.32103,5.402829 -9.34239,0 -16.20848,-2.813976 -16.20848,-6.528418 0,-2.138618 1.35071,-4.052118 3.71445,-5.515383 l 19.92291,2.138618 z" />
    <path
       id="path3143"
       style="font-style:normal;font-variant:normal;font-weight:bold;font-stretch:normal;font-size:112.55884552px;line-height:125%;font-family:'URW Bookman L';-inkscape-font-specification:'URW Bookman L, Bold';text-align:start;writing-mode:lr-tb;text-anchor:start;fill:#001e00;fill-opacity:1"
       d="m 181.12252,24.830626 -6.97865,0 -17.55918,3.264207 0,9.117266 2.02606,0.225118 c 4.95259,0.562794 6.19074,2.363736 6.19074,9.229826 l 0,16.208473 c 0,6.415854 -0.67535,7.541443 -4.95259,8.554473 l -3.26421,0.787911 0,9.117267 34.66813,0 0,-9.117267 -3.26421,-0.787911 c -4.27723,-1.01303 -4.95259,-2.138619 -4.95259,-8.554473 l 0,-21.836416 c 1.57583,-1.350706 2.70141,-1.800941 4.50236,-1.800941 1.3507,0 1.3507,0 3.93956,1.688382 2.02606,1.350707 3.60188,1.800942 5.7405,1.800942 5.06515,0 8.89215,-3.601883 8.89215,-8.554472 0,-5.85306 -4.3898,-10.355414 -10.1303,-10.355414 -4.61491,0 -7.42888,1.238147 -14.85777,6.528413 l 0,-5.515384 z" />
    <path
       id="path3145"
       style="font-style:normal;font-variant:normal;font-weight:bold;font-stretch:normal;font-size:112.55884552px;line-height:125%;font-family:'URW Bookman L';-inkscape-font-specification:'URW Bookman L, Bold';text-align:start;writing-mode:lr-tb;text-anchor:start;fill:#001e00;fill-opacity:1"
       d="m 235.2563,24.830626 -6.97865,0 -19.81036,3.264207 0,9.117266 2.36374,0.225118 c 4.84003,0.450236 6.19074,2.363736 6.19074,9.229826 l 0,16.208473 c 0,6.415854 -0.67536,7.654002 -4.95259,8.554473 l -3.60189,0.787911 0,9.117267 35.23092,0 0,-9.117267 -3.48932,-0.787911 c -4.27724,-1.01303 -4.95259,-2.138619 -4.95259,-8.554473 l 0,-38.04489 z m -9.79262,-25.6634163 c -5.96562,0 -11.14333,5.065148 -11.14333,11.0307673 0,5.965618 4.72747,10.805649 10.69309,10.805649 6.07818,0 11.14333,-5.065148 11.14333,-11.143326 0,-5.9656188 -4.61491,-10.6930903 -10.69309,-10.6930903 z" />
    <path
       id="path3147"
       style="font-style:normal;font-variant:normal;font-weight:bold;font-stretch:normal;font-size:112.55884552px;line-height:125%;font-family:'URW Bookman L';-inkscape-font-specification:'URW Bookman L, Bold';text-align:start;writing-mode:lr-tb;text-anchor:start;fill:#001e00;fill-opacity:1"
       d="M 293.15376,31.133922 284.8244,19.315243 c -0.67535,-1.01303 -1.12559,-2.138618 -1.12559,-2.92653 0,-1.9135 0.90047,-2.251177 6.86609,-2.476295 l 0,-9.2298249 -41.87189,0 0,9.2298249 c 7.31633,0.675354 8.89215,1.913501 15.53312,11.143326 l 13.28195,17.671739 -17.10895,21.048504 c -3.60188,4.727472 -9.00471,7.991678 -13.84474,8.329355 l 0,9.229825 34.89325,0 0,-9.229825 -2.81398,-0.225118 c -3.827,-0.337677 -6.07817,-1.463265 -6.07817,-3.264207 0,-0.787912 0.33767,-1.463265 1.80094,-3.714442 l 9.68006,-13.957296 11.25588,15.870797 c 0.90047,1.125588 1.35071,2.251177 1.35071,2.813971 0,1.238147 -1.46327,1.800942 -5.29027,2.251177 l -2.25117,0.225118 0,9.229825 44.01051,0 0,-9.229825 -2.81398,-0.225118 c -5.40282,-0.787912 -8.32935,-3.039089 -15.53312,-11.818679 L 299.56961,40.251188 310.60038,26.293891 C 316.566,18.63989 322.41906,15.038007 330.41073,13.912418 l 0,-9.2298249 -35.23092,0 0,9.2298249 1.80095,0 c 3.60188,0 5.85306,1.01303 5.85306,2.476295 0,0.562794 -0.67536,2.026059 -1.46327,3.151648 l -8.21679,11.593561 z" />
    <path
       id="path3149"
       style="font-style:normal;font-variant:normal;font-weight:bold;font-stretch:normal;font-size:112.55884552px;line-height:125%;font-family:'URW Bookman L';-inkscape-font-specification:'URW Bookman L, Bold';text-align:start;writing-mode:lr-tb;text-anchor:start;fill:#001e00;fill-opacity:1"
       d="m 363.4239,24.830626 -6.97865,0 -19.81035,3.264207 0,9.117266 2.36373,0.225118 c 4.84003,0.450236 6.19074,2.363736 6.19074,9.229826 l 0,16.208473 c 0,6.415854 -0.67536,7.654002 -4.95259,8.554473 l -3.60188,0.787911 0,9.117267 35.23091,0 0,-9.117267 -3.48932,-0.787911 c -4.27724,-1.01303 -4.95259,-2.138619 -4.95259,-8.554473 l 0,-38.04489 z m -9.79262,-25.6634163 c -5.96562,0 -11.14332,5.065148 -11.14332,11.0307673 0,5.965618 4.72747,10.805649 10.69309,10.805649 6.07817,0 11.14332,-5.065148 11.14332,-11.143326 0,-5.9656188 -4.61491,-10.6930903 -10.69309,-10.6930903 z" />
    <path
       id="path3151"
       style="font-style:normal;font-variant:normal;font-weight:bold;font-stretch:normal;font-size:112.55884552px;line-height:125%;font-family:'URW Bookman L';-inkscape-font-specification:'URW Bookman L, Bold';text-align:start;writing-mode:lr-tb;text-anchor:start;fill:#001e00;fill-opacity:1"
       d="m 433.72618,24.830626 -28.81506,0 0,9.117267 c 4.27723,1.01303 5.96562,2.026059 5.96562,3.714442 0,0.787912 -0.11256,1.125588 -1.35071,4.614913 l -6.86609,18.009415 -7.31632,-18.797327 c 0,-0.225118 -0.22512,-0.675353 -0.45024,-1.238148 -0.56279,-1.350706 -0.78791,-2.026059 -0.78791,-2.476294 0,-2.251177 2.13862,-3.489324 6.41585,-3.827001 l 0,-9.117267 -34.21789,0 0,9.117267 c 5.96562,1.800941 6.07818,1.9135 9.79262,9.905178 l 17.44662,37.482096 11.36845,0 16.09591,-34.217889 c 4.27724,-8.892149 4.84003,-9.454943 12.71915,-13.169385 l 0,-9.117267 z" />
  </g>
</svg>
